<?xml version="1.0" encoding="UTF-8"?>
<svg xmlns="http://www.w3.org/2000/svg" xmlns:xlink="http://www.w3.org/1999/xlink" width="54px" height="60px" viewBox="0 0 54 60" version="1.1">
    <!-- Generator: Sketch 51.1 (57501) - http://www.bohemiancoding.com/sketch -->
    <title>038 - Assistant Bot</title>
    <desc>Created with Sketch.</desc>
    <defs/>
    <g id="Page-1" stroke="none" stroke-width="1" fill="none" fill-rule="evenodd">
        <g id="038---Assistant-Bot" fill-rule="nonzero">
            <g id="Icons" transform="translate(1.000000, 1.000000)">
                <rect id="Rectangle-path" fill="#EBEBEB" x="8" y="6" width="36" height="20" rx="3"/>
                <path d="M41,6 L38,6 C39.6568542,6 41,7.34314575 41,9 L41,23 C41,24.6568542 39.6568542,26 38,26 L41,26 C42.6568542,26 44,24.6568542 44,23 L44,9 C44,7.34314575 42.6568542,6 41,6 Z" id="Shape" fill="#D8D8D8"/>
                <path d="M29,6 L23,6 L23.671,1.973 C23.860685,0.834449939 24.8457571,-4.86998335e-05 26,0 C27.1542429,-4.86998335e-05 28.139315,0.834449939 28.329,1.973 L29,6 Z" id="Shape" fill="#DADBDD"/>
                <circle id="Oval" fill="#FFFFFF" cx="18" cy="16" r="6"/>
                <circle id="Oval" fill="#FFFFFF" cx="34" cy="16" r="6"/>
                <path d="M7,10 L8,10 L8,22 L7,22 C5.34314575,22 4,20.6568542 4,19 L4,13 C4,11.3431458 5.34314575,10 7,10 Z" id="Shape" fill="#DADBDD"/>
                <path d="M2,14 L4,14 L4,18 L2,18 C0.8954305,18 0,17.1045695 0,16 C0,14.8954305 0.8954305,14 2,14 Z" id="Shape" fill="#DADBDD"/>
                <path d="M47,10 L48,10 L48,22 L47,22 C45.3431458,22 44,20.6568542 44,19 L44,13 C44,11.3431458 45.3431458,10 47,10 Z" id="Shape" fill="#DADBDD" transform="translate(46.000000, 16.000000) rotate(-180.000000) translate(-46.000000, -16.000000) "/>
                <path d="M50,14 L52,14 L52,18 L50,18 C48.8954305,18 48,17.1045695 48,16 C48,14.8954305 48.8954305,14 50,14 Z" id="Shape" fill="#DADBDD" transform="translate(50.000000, 16.000000) rotate(-180.000000) translate(-50.000000, -16.000000) "/>
                <path d="M35,32 C34.9918328,33.1011688 34.1011688,33.9918328 33,34 L19,34 C17.8967981,33.9967052 17.0032948,33.1032019 17,32 C17.0081672,30.8988312 17.8988312,30.0081672 19,30 C17.8967981,29.9967052 17.0032948,29.1032019 17,28 C17.0081672,26.8988312 17.8988312,26.0081672 19,26 L33,26 C34.1032019,26.0032948 34.9967052,26.8967981 35,28 C34.9918328,29.1011688 34.1011688,29.9918328 33,30 C34.1032019,30.0032948 34.9967052,30.8967981 35,32 Z" id="Shape" fill="#DADBDD"/>
                <path d="M33,30 C34.1011688,29.9918328 34.9918328,29.1011688 35,28 C34.9967052,26.8967981 34.1032019,26.0032948 33,26 L30,26 C31.1032019,26.0032948 31.9967052,26.8967981 32,28 C31.9918328,29.1011688 31.1011688,29.9918328 30,30 C31.1032019,30.0032948 31.9967052,30.8967981 32,32 C31.9918328,33.1011688 31.1011688,33.9918328 30,34 L33,34 C34.1011688,33.9918328 34.9918328,33.1011688 35,32 C34.9967052,30.8967981 34.1032019,30.0032948 33,30 Z" id="Shape" fill="#C0C0C0"/>
                <rect id="Rectangle-path" fill="#EBEBEB" x="14" y="34" width="24" height="18" rx="2"/>
                <path d="M36,34 L33,34 C34.1032019,34.0032948 34.9967052,34.8967981 35,36 L35,50 C34.9967052,51.1032019 34.1032019,51.9967052 33,52 L36,52 C37.1032019,51.9967052 37.9967052,51.1032019 38,50 L38,36 C37.9967052,34.8967981 37.1032019,34.0032948 36,34 Z" id="Shape" fill="#D8D8D8"/>
                <path d="M26,52 L26,56 C25.9967052,57.1032019 25.1032019,57.9967052 24,58 L18,58 C16.8967981,57.9967052 16.0032948,57.1032019 16,56 L16,52 L26,52 Z" id="Shape" fill="#DADBDD"/>
                <path d="M23,52 L23,56 C22.9967052,57.1032019 22.1032019,57.9967052 21,58 L24,58 C25.1032019,57.9967052 25.9967052,57.1032019 26,56 L26,52 L23,52 Z" id="Shape" fill="#C0C0C0"/>
                <path d="M36,52 L36,56 C35.9967052,57.1032019 35.1032019,57.9967052 34,58 L28,58 C26.8967981,57.9967052 26.0032948,57.1032019 26,56 L26,52 L36,52 Z" id="Shape" fill="#DADBDD"/>
                <path d="M33,52 L33,56 C32.9967052,57.1032019 32.1032019,57.9967052 31,58 L34,58 C35.1032019,57.9967052 35.9967052,57.1032019 36,56 L36,52 L33,52 Z" id="Shape" fill="#C0C0C0"/>
                <path d="M16,52 L16,55 L14,55 C11.790861,55 10,53.209139 10,51 L10,38 C10.0032948,36.8967981 10.8967981,36.0032948 12,36 L14,36 L14,50 C14.0032948,51.1032019 14.8967981,51.9967052 16,52 Z" id="Shape" fill="#DADBDD"/>
                <path d="M42,38 L42,51 C42,53.209139 40.209139,55 38,55 L36,55 L36,52 C37.1032019,51.9967052 37.9967052,51.1032019 38,50 L38,36 L40,36 C41.1032019,36.0032948 41.9967052,36.8967981 42,38 Z" id="Shape" fill="#DADBDD"/>
                <path d="M40,36 L38,36 L38,36.279 C38.615396,36.6342845 38.9960674,37.28942 39,38 L39,51 C38.9971579,52.8199962 37.7630862,54.4074237 36,54.859 L36,55 L38,55 C40.209139,55 42,53.209139 42,51 L42,38 C41.9967052,36.8967981 41.1032019,36.0032948 40,36 Z" id="Shape" fill="#C0C0C0"/>
                <circle id="Oval" fill="#EBEBEB" cx="26" cy="46" r="2"/>
            </g>
            <g id="Icons_copy_2" transform="translate(1.000000, 11.000000)" fill="#FFFFFF">
                <path d="M20,22 C20.0081672,20.8988312 20.8988312,20.0081672 22,20 C20.8967981,19.9967052 20.0032948,19.1032019 20,18 C20.0081672,16.8988312 20.8988312,16.0081672 22,16 L19,16 C17.8988312,16.0081672 17.0081672,16.8988312 17,18 C17.0032948,19.1032019 17.8967981,19.9967052 19,20 C17.8988312,20.0081672 17.0081672,20.8988312 17,22 C17.0032948,23.1032019 17.8967981,23.9967052 19,24 L22,24 C20.8967981,23.9967052 20.0032948,23.1032019 20,22 Z" id="Shape"/>
                <path d="M14,26 L12,26 C10.8967981,26.0032948 10.0032948,26.8967981 10,28 L10,41 C10,43.209139 11.790861,45 14,45 L17,45 C14.790861,45 13,43.209139 13,41 L13,28 C13.0032948,26.8967981 13.8967981,26.0032948 15,26 L14,26 Z" id="Shape"/>
                <path d="M8,0 L7,0 C5.34314575,-1.77635684e-15 4,1.34314575 4,3 L4,4 L2,4 C0.8954305,4 -8.8817842e-16,4.8954305 -8.8817842e-16,6 C-8.8817842e-16,7.1045695 0.8954305,8 2,8 L4,8 L4,9 C4,10.6568542 5.34314575,12 7,12 L8,12 L8.186,11.39 C7.43866373,10.822641 6.99982359,9.93830042 7,9 L7,3 L8,0 Z" id="Shape"/>
            </g>
            <g id="Icons_copy">
                <rect id="Rectangle-path" fill="#FFFFFF" x="10" y="39" width="2" height="8"/>
                <path d="M19,10 C15.1340068,10 12,13.1340068 12,17 C12,20.8659932 15.1340068,24 19,24 C22.8659932,24 26,20.8659932 26,17 C25.9955914,13.1358343 22.8641657,10.0044086 19,10 Z M19,22 C16.2385763,22 14,19.7614237 14,17 C14,14.2385763 16.2385763,12 19,12 C21.7614237,12 24,14.2385763 24,17 C23.9966939,19.7600532 21.7600532,21.9966939 19,22 Z" id="Shape" fill="#A7A7A7"/>
                <path d="M35,10 C31.1340068,10 28,13.1340068 28,17 C28,20.8659932 31.1340068,24 35,24 C38.8659932,24 42,20.8659932 42,17 C41.9955914,13.1358343 38.8641657,10.0044086 35,10 Z M35,22 C32.9776888,22 31.1545073,20.7817891 30.3806023,18.9134172 C29.6066973,17.0450452 30.0344761,14.8944561 31.4644661,13.4644661 C32.8944561,12.0344761 35.0450452,11.6066973 36.9134172,12.3806023 C38.7817891,13.1545073 40,14.9776888 40,17 C39.9966939,19.7600532 37.7600532,21.9966939 35,22 Z" id="Shape" fill="#A7A7A7"/>
                <path d="M50,20 L51,20 C52.6568542,20 54,18.6568542 54,17 C54,15.3431458 52.6568542,14 51,14 L50,14 C50,11.790861 48.209139,10 46,10 C46,7.790861 44.209139,6 42,6 L30.847,6 L30.315,2.808 C30.0442059,1.18810977 28.6423683,0.00116243106 27,0.00116243106 C25.3576317,0.00116243106 23.9557941,1.18810977 23.685,2.808 L23.153,6 L12,6 C9.790861,6 8,7.790861 8,10 C5.790861,10 4,11.790861 4,14 L3,14 C1.34314575,14 0,15.3431458 0,17 C-4.4408921e-16,18.6568542 1.34314575,20 3,20 L4,20 C4,22.209139 5.790861,24 8,24 C8,26.209139 9.790861,28 12,28 L17.182,28 C16.8022158,29.0310024 17.028157,30.1876981 17.768,31 C17.0252478,31.8109027 16.7996702,32.969692 17.184,34 L17,34 C15.7332146,34.0052514 14.6062546,34.8056491 14.184,36 L13,36 C11.3431458,36 10,37.3431458 10,39 C10,39.5522847 10.4477153,40 11,40 C11.5522847,40 12,39.5522847 12,39 C12,38.4477153 12.4477153,38 13,38 L14,38 L14,51 C14.0052514,52.2667854 14.8056491,53.3937454 16,53.816 L16,55 L15,55 C13.3431458,55 12,53.6568542 12,52 L12,47 C12,46.4477153 11.5522847,46 11,46 C10.4477153,46 10,46.4477153 10,47 L10,52 C10.0033061,54.7600532 12.2399468,56.9966939 15,57 L16,57 C16,58.6568542 17.3431458,60 19,60 L25,60 C25.740399,59.9973963 26.4533329,59.7193521 27,59.22 C27.5466671,59.7193521 28.259601,59.9973963 29,60 L35,60 C36.6568542,60 38,58.6568542 38,57 L39,57 C41.7600532,56.9966939 43.9966939,54.7600532 44,52 L44,39 C44,37.3431458 42.6568542,36 41,36 L39.816,36 C39.3937454,34.8056491 38.2667854,34.0052514 37,34 L36.818,34 C37.1977842,32.9689976 36.971843,31.8123019 36.232,31 C36.9747522,30.1890973 37.2003298,29.030308 36.816,28 L42,28 C44.209139,28 46,26.209139 46,24 C48.209139,24 50,22.209139 50,20 Z M51,16 C51.5522847,16 52,16.4477153 52,17 C52,17.5522847 51.5522847,18 51,18 L50,18 L50,16 L51,16 Z M48,14 L48,20 C48,21.1045695 47.1045695,22 46,22 L46,12 C47.1045695,12 48,12.8954305 48,14 Z M25.657,3.138 C25.7676439,2.48254486 26.3352719,2.00270465 27,2.00270465 C27.6647281,2.00270465 28.2323561,2.48254486 28.343,3.138 L28.819,6 L25.181,6 L25.657,3.138 Z M3,18 C2.44771525,18 2,17.5522847 2,17 C2,16.4477153 2.44771525,16 3,16 L4,16 L4,18 L3,18 Z M6,20 L6,14 C6,12.8954305 6.8954305,12 8,12 L8,22 C6.8954305,22 6,21.1045695 6,20 Z M25,58 L19,58 C18.4477153,58 18,57.5522847 18,57 L18,54 L26,54 L26,57 C26,57.5522847 25.5522847,58 25,58 Z M36,57 C36,57.5522847 35.5522847,58 35,58 L29,58 C28.4477153,58 28,57.5522847 28,57 L28,54 L36,54 L36,57 Z M42,39 L42,52 C42,53.6568542 40.6568542,55 39,55 L38,55 L38,53.816 C39.1943509,53.3937454 39.9947486,52.2667854 40,51 L40,38 L41,38 C41.5522847,38 42,38.4477153 42,39 Z M38,37 L38,51 C38,51.5522847 37.5522847,52 37,52 L17,52 C16.4477153,52 16,51.5522847 16,51 L16,37 C16,36.4477153 16.4477153,36 17,36 L37,36 C37.5522847,36 38,36.4477153 38,37 Z M35,29 C35.0003954,29.2693445 34.889692,29.526929 34.694,29.712 C34.5116037,29.8985985 34.2609224,30.0026276 34,30 L29,30 C28.4477153,30 28,30.4477153 28,31 C28,31.5522847 28.4477153,32 29,32 L34,32 C34.5522847,32 35,32.4477153 35,33 C35.0003954,33.2693445 34.889692,33.526929 34.694,33.712 C34.5116037,33.8985985 34.2609224,34.0026276 34,34 L20,34 C19.4477153,34 19,33.5522847 19,33 C18.9995061,32.7304318 19.1106397,32.4726886 19.307,32.288 C19.4888208,32.1011602 19.73931,31.9970608 20,32 L25,32 C25.5522847,32 26,31.5522847 26,31 C26,30.4477153 25.5522847,30 25,30 L20,30 C19.4477153,30 19,29.5522847 19,29 C18.9995061,28.7304318 19.1106397,28.4726886 19.307,28.288 C19.4888208,28.1011602 19.73931,27.9970608 20,28 L34,28 C34.5522847,28 35,28.4477153 35,29 Z M44,24 C44,25.1045695 43.1045695,26 42,26 L12,26 C10.8954305,26 10,25.1045695 10,24 L10,10 C10,8.8954305 10.8954305,8 12,8 L42,8 C43.1045695,8 44,8.8954305 44,10 L44,24 Z" id="Shape" fill="#A7A7A7"/>
                <path d="M11.02,44 C10.6627344,44.0017863 10.3316544,43.812838 10.1514746,43.5043301 C9.9712948,43.1958222 9.96938881,42.8146244 10.1464746,42.5043301 C10.3235604,42.1940359 10.6527344,42.0017863 11.01,42 L11.02,42 C11.5722847,42 12.02,42.4477153 12.02,43 C12.02,43.5522847 11.5722847,44 11.02,44 Z" id="Shape" fill="#A7A7A7"/>
                <path d="M27,44 C25.3431458,44 24,45.3431458 24,47 C24,48.6568542 25.3431458,50 27,50 C28.6568542,50 30,48.6568542 30,47 C30,45.3431458 28.6568542,44 27,44 Z M27,48 C26.4477153,48 26,47.5522847 26,47 C26,46.4477153 26.4477153,46 27,46 C27.5522847,46 28,46.4477153 28,47 C28,47.5522847 27.5522847,48 27,48 Z" id="Shape" fill="#A7A7A7"/>
            </g>
        </g>
    </g>
</svg>
